<?xml version="1.0" encoding="utf-8"?>
<!-- Generator: Adobe Illustrator 26.2.1, SVG Export Plug-In . SVG Version: 6.00 Build 0)  -->
<svg version="1.1" id="레이어_2" xmlns="http://www.w3.org/2000/svg" xmlns:xlink="http://www.w3.org/1999/xlink" x="0px"
	 y="0px" viewBox="0 0 173.604 225.429" style="enable-background:new 0 0 173.604 225.429;" xml:space="preserve">
<style type="text/css">
	.st0{fill:#FFFFFF;stroke:#000000;stroke-miterlimit:10;}
	.st1{fill:#E60012;stroke:#000000;stroke-miterlimit:10;}
	.st2{fill:none;stroke:#E60012;stroke-width:8;stroke-miterlimit:10;}
	.st3{fill:#E0E0E0;}
	.st4{fill:none;}
	.st5{fill:#FFFFFF;}
	.st6{font-family:'Dotum';}
	.st7{font-size:60px;}
	.st8{letter-spacing:-1;}
	.st9{letter-spacing:14;}
</style>
<g>
	<path class="st0" d="M5.3663,0h119.4059l47.5842,47.9257l1.2475,172.3366c0,0-1.0693,3.7723-4.2772,4.7376
		c-3.2079,0.9653-163.9604,0-163.9604,0s-3.5644-0.6386-4.8119-4.203s0-215.1089,0-215.1089S0.3762,1.0842,5.3663,0z"/>
	<path class="st1" d="M165.9307,225.429H5.8911h0c-2.6912,0-5.0052-1.9066-5.52-4.5481L0,218.9769v-64.4092h173.604v65.8713l0,0
		c-0.7393,2.9339-3.3779,4.9901-6.4035,4.9901H165.9307z"/>
	<path class="st2" d="M69.3366,106.7739c0,0,48.8317-21.7426,63.0891-12.4752c0,0,3.5644,2.3346,1.4258,5.0881
		s-6.7723,4.5357-10.3366,3.8228c-3.5644-0.7129-43.1287-39.5644-44.198-62.3762c0,0,0-10.6931,5.703-9.2673
		c5.703,1.4257,4.9901,8.5545,1.7822,26.3762c-3.2079,17.8218-29.2277,86.2574-36.3564,69.8614
		C50.4455,127.8036,42.4764,116.6854,69.3366,106.7739z"/>
	<polygon class="st3" points="124.5842,48.1766 172,48.1403 124.4158,0.2145 	"/>
	<rect x="9.099" y="162.0215" class="st4" width="152.198" height="53.4653"/>
	<text transform="matrix(1 0 0 1 9.0992 213.5248)"><tspan x="0" y="0" class="st5 st6 st7 st8">P D </tspan><tspan x="116.1099" y="0" class="st5 st6 st7 st9">F</tspan></text>
</g>
</svg>
