<svg version="1.1" id="레이어_2" xmlns="http://www.w3.org/2000/svg" x="0" y="0" viewBox="0 0 173.6 225.4" style="enable-background:new 0 0 173.604 225.429" xml:space="preserve"><style>.st5{fill:#fff}.st6{font-family:&apos;Dotum&apos;}.st7{font-size:60px}</style><path d="M5 0h120l47 48 2 172s-1 4-5 5H5s-3-1-4-4V6S0 1 5 0z" style="fill:#fff;stroke:#000;stroke-miterlimit:10"/><path d="M166 225H6c-3 0-5-1-6-4v-66h174v65c-1 3-4 5-7 5h-1z" style="fill:#e60012;stroke:#000;stroke-miterlimit:10"/><path d="M69 107s49-22 63-13c0 0 4 3 2 5s-7 5-10 4c-4-1-44-39-45-62 0 0 0-11 6-9 6 1 5 8 2 26s-29 86-37 70c0 0-8-11 19-21z" style="fill:none;stroke:#e60012;stroke-width:8;stroke-miterlimit:10"/><path style="fill:#e0e0e0" d="M125 48h47L124 0z"/><path style="fill:none" d="M9 162h152v54H9z"/><text transform="translate(9 214)"><tspan x="0" y="0" class="st5 st6 st7" style="letter-spacing:-1">P D </tspan><tspan x="116.1" y="0" class="st5 st6 st7" style="letter-spacing:14">F</tspan></text></svg>